<?xml version="1.0" standalone="no"?>
<!DOCTYPE svg PUBLIC "-//W3C//DTD SVG 20010904//EN"
 "http://www.w3.org/TR/2001/REC-SVG-20010904/DTD/svg10.dtd">
<svg version="1.0" xmlns="http://www.w3.org/2000/svg"
 width="512.000000pt" height="512.000000pt" viewBox="0 0 512.000000 512.000000"
 preserveAspectRatio="xMidYMid meet">

<g transform="translate(0.000000,512.000000) scale(0.100000,-0.100000)"
fill="#000000" stroke="none">
<path d="M2335 5108 c-1117 -98 -2043 -920 -2275 -2019 -39 -185 -53 -358 -47
-589 6 -237 21 -354 72 -556 48 -192 99 -328 191 -514 135 -270 267 -453 484
-670 695 -696 1717 -926 2655 -598 245 86 539 251 755 425 417 335 735 837
865 1365 57 230 69 342 69 613 0 277 -13 391 -73 629 -49 194 -94 314 -187
503 -129 263 -279 470 -493 683 -531 528 -1269 794 -2016 728z m544 -144 c151
-20 409 -79 428 -98 3 -3 -34 -47 -83 -98 -191 -198 -320 -451 -370 -725 -23
-129 -21 -370 4 -499 75 -378 288 -700 601 -909 244 -162 485 -235 781 -235
236 0 408 39 619 141 l124 59 -6 -133 c-23 -467 -161 -884 -418 -1262 -376
-553 -966 -927 -1631 -1032 -177 -28 -599 -25 -769 5 -250 45 -434 105 -664
217 -242 117 -423 245 -619 435 -209 203 -364 415 -486 665 -116 237 -186 460
-226 715 -26 160 -26 548 -1 705 22 144 67 323 112 455 48 139 177 400 261
525 419 630 1082 1022 1838 1085 128 11 357 4 505 -16z"/>
<path d="M2355 4874 c-546 -56 -1035 -283 -1416 -655 -717 -703 -899 -1792
-449 -2689 300 -598 850 -1041 1495 -1205 210 -53 342 -69 575 -69 382 0 676
67 1015 234 730 358 1208 1048 1290 1862 4 38 4 68 2 68 -3 0 -41 -13 -84 -30
-566 -214 -1200 -76 -1620 352 -204 208 -341 465 -405 762 -19 85 -22 133 -22
301 0 184 2 209 28 320 56 240 165 465 307 636 22 26 39 49 39 52 0 5 -85 23
-215 44 -86 14 -456 25 -540 17z m-1031 -1198 c68 -28 76 -45 76 -156 0 -112
-3 -109 76 -89 53 14 98 0 88 -26 -5 -12 -23 -15 -85 -15 l-79 0 -1 -32 c-2
-55 -23 -141 -36 -146 -10 -3 -13 40 -13 193 l0 198 -36 33 c-19 19 -40 34
-45 34 -6 0 -7 5 -4 10 8 13 19 13 59 -4z m951 -5 c69 -31 68 -27 62 -258 -5
-215 -10 -253 -33 -253 -12 0 -14 40 -14 225 l0 224 -40 32 c-62 50 -50 64 25
30z m-225 -94 c25 -12 25 -13 28 -166 2 -104 -1 -158 -9 -167 -15 -19 -29 -18
-29 3 0 14 -12 15 -112 9 -95 -6 -114 -9 -125 -26 -8 -11 -19 -18 -24 -15 -5
4 -9 67 -9 141 l0 134 -35 17 c-19 9 -35 20 -35 25 0 21 109 -4 111 -25 1 -7
2 -59 3 -116 l1 -105 105 3 c58 1 108 5 112 7 5 3 8 27 8 54 l0 49 -102 3
c-82 2 -103 6 -106 18 -2 13 15 15 103 15 l105 0 0 40 c0 47 -21 82 -57 96
-13 5 -21 14 -18 20 8 11 43 5 85 -14z m-896 -50 c35 -26 -4 -35 -165 -39
-121 -2 -160 0 -172 11 -30 24 -18 30 51 25 37 -3 103 -1 147 4 115 13 119 13
139 -1z m-261 -85 c12 -13 17 -42 19 -102 l3 -85 60 3 c51 3 214 35 293 58 36
10 26 -15 -12 -31 -54 -23 -225 -65 -288 -72 -44 -4 -63 -2 -82 10 -23 15 -25
24 -28 109 -2 51 -7 101 -12 111 -11 24 25 23 47 -1z m1318 -273 c16 -8 18
-13 8 -25 -14 -17 -159 -20 -190 -4 -32 18 -22 32 19 26 20 -3 53 -2 72 3 49
13 68 13 91 0z m-834 -20 c27 -14 29 -38 8 -79 -22 -43 -40 -38 -40 11 l0 41
-123 -1 c-68 -1 -130 -5 -138 -8 -14 -5 -64 21 -64 35 0 13 332 14 357 1z
m976 -76 c4 -3 3 -11 -3 -18 -16 -19 -406 -27 -442 -8 -16 7 -28 17 -28 21 0
5 51 7 113 5 61 -2 153 0 202 5 83 9 138 7 158 -5z m-952 -70 c19 -19 3 -21
-183 -26 -135 -4 -170 -2 -187 10 -12 8 -21 17 -21 21 0 13 378 8 391 -5z
m753 -6 c9 -14 6 -22 -19 -42 -37 -31 -243 -135 -267 -135 -33 0 -19 16 40 44
76 37 192 115 193 129 1 7 1 16 0 20 -3 15 42 2 53 -16z m-1076 -49 c7 -7 12
-29 12 -50 0 -25 5 -41 15 -44 8 -3 81 -1 162 5 126 9 150 8 162 -4 8 -8 12
-18 8 -22 -4 -4 -85 -9 -180 -11 -201 -4 -205 -3 -207 73 -1 28 -1 53 -1 58 1
11 15 9 29 -5z m1181 -24 c91 -27 128 -52 118 -78 -9 -23 -32 -20 -77 13 -22
16 -64 39 -95 51 -30 12 -55 26 -55 31 0 14 15 11 109 -17z m-905 -419 c15
-10 31 -26 36 -36 6 -10 10 -88 10 -174 0 -143 2 -157 17 -151 32 12 128 17
143 7 28 -19 -6 -35 -79 -35 -38 -1 -72 -4 -75 -7 -4 -3 -10 -102 -15 -220 -8
-207 -14 -249 -32 -249 -4 0 -10 183 -11 406 l-3 406 -43 37 c-23 20 -40 40
-37 43 9 9 57 -6 89 -27z m863 -58 c11 -4 23 -13 26 -20 8 -21 -17 -82 -35
-85 -15 -3 -18 4 -18 38 l0 41 -165 -7 c-166 -7 -195 -3 -195 30 0 13 351 16
387 3z m-1048 -141 c28 -26 27 -43 -10 -102 -68 -108 -336 -341 -362 -315 -6
6 -9 12 -6 14 150 106 339 312 339 370 0 18 -6 19 -102 11 -142 -11 -165 -10
-188 11 -11 10 -18 20 -16 24 2 3 76 6 164 6 143 0 162 -2 181 -19z m1072 -3
c19 -19 3 -21 -202 -27 -156 -4 -189 -3 -208 10 -12 9 -19 18 -17 22 8 13 414
8 427 -5z m-341 -110 l0 -33 54 0 c29 0 113 5 185 11 97 8 136 8 144 0 23 -23
-14 -31 -199 -37 -227 -8 -234 -6 -234 65 0 26 3 51 7 54 13 14 43 -27 43 -60z
m31 -172 c323 16 516 16 531 1 11 -11 10 -16 -7 -28 -11 -8 -26 -11 -35 -7 -8
4 -88 9 -176 11 l-162 4 -4 -154 c-3 -84 -10 -165 -16 -180 -25 -61 -32 -28
-32 147 l0 175 -37 0 c-21 0 -90 -5 -154 -10 -121 -11 -155 -6 -191 27 -28 25
-13 31 40 18 37 -10 94 -11 243 -4z m-467 -747 c9 -3 16 -13 16 -22 0 -13 -2
-13 -18 1 -22 20 -63 22 -80 5 -24 -24 -12 -47 40 -75 28 -15 56 -35 61 -44
16 -26 0 -65 -32 -79 -31 -12 -86 -6 -97 11 -8 14 5 26 14 13 11 -17 52 -23
78 -12 17 8 24 19 24 39 0 24 -8 33 -50 54 -62 31 -78 57 -55 91 16 24 61 32
99 18z m1466 -12 c26 -12 39 -28 50 -60 14 -40 13 -45 -5 -80 -25 -47 -56 -62
-125 -61 -30 0 -49 3 -42 6 16 6 17 184 0 201 -20 20 81 15 122 -6z m-1366
-13 c-3 -5 -10 -7 -15 -3 -5 3 -7 10 -3 15 3 5 10 7 15 3 5 -3 7 -10 3 -15z
m609 -50 c22 -2 22 -2 0 -6 -21 -4 -23 -10 -23 -64 0 -54 2 -59 23 -59 20 -1
21 -1 3 -11 -29 -17 -44 8 -47 76 -1 61 12 119 19 83 2 -10 13 -19 25 -19z
m1620 0 c22 -2 22 -2 0 -6 -21 -4 -23 -10 -23 -64 0 -54 2 -59 23 -59 19 -1
20 -2 5 -10 -34 -21 -48 -2 -48 66 0 36 -4 64 -10 64 -5 0 -2 9 8 20 14 17 18
18 20 5 2 -8 13 -16 25 -16z m-2221 -69 c2 -57 0 -70 -12 -70 -12 0 -14 12
-12 60 3 45 0 60 -10 60 -10 0 -9 3 2 10 26 17 28 12 32 -60z m168 58 c0 -4
-4 -8 -9 -8 -5 0 -7 -9 -4 -20 3 -11 0 -27 -7 -35 -15 -18 -61 -20 -78 -3 -15
15 -15 51 0 66 13 13 98 14 98 0z m70 -46 c0 -32 5 -63 12 -70 9 -9 5 -12 -17
-11 -17 0 -24 3 -17 6 15 6 17 113 1 113 -5 0 -7 5 -4 10 15 24 25 6 25 -48z
m81 48 c15 -8 19 -21 19 -58 0 -27 5 -53 12 -60 9 -9 8 -12 -7 -12 -18 0 -20
7 -20 57 l0 58 -32 0 c-24 0 -29 3 -21 12 13 16 23 16 49 3z m159 0 c17 -10
32 -132 15 -127 -5 2 -11 18 -13 35 -2 20 -9 32 -18 32 -28 0 -54 -20 -54 -41
0 -18 5 -21 30 -17 35 5 37 3 10 -12 -26 -14 -60 3 -60 30 0 23 36 50 67 50
16 0 23 6 23 20 0 26 -25 36 -56 22 -13 -7 -24 -8 -24 -3 0 19 55 27 80 11z
m210 -56 l5 -59 33 0 c29 0 31 -1 15 -12 -22 -17 -27 -16 -51 5 -15 12 -21 33
-24 75 -3 39 -1 56 6 54 6 -2 13 -30 16 -63z m102 -4 c3 -72 -7 -96 -16 -37
-15 96 -15 107 -1 107 10 0 14 -19 17 -70z m78 12 c0 -32 5 -63 12 -70 9 -9 6
-12 -17 -12 -23 0 -26 3 -17 12 15 15 16 108 1 108 -5 0 -7 5 -4 10 15 24 25
6 25 -48z m58 43 c-2 -5 -11 -10 -20 -10 -14 -1 -15 1 -6 12 12 15 32 13 26
-2z m142 -5 c35 -35 19 -51 -48 -49 l-37 1 38 8 c46 9 53 15 37 35 -30 36 -80
5 -80 -50 0 -46 38 -73 78 -56 25 11 26 10 8 -4 -28 -22 -53 -19 -81 10 -30
30 -32 64 -4 99 25 31 61 34 89 6z m496 -6 c22 -32 8 -44 -51 -43 l-40 1 38 8
c46 9 53 15 37 35 -30 36 -80 5 -80 -50 0 -47 38 -74 77 -56 23 11 25 10 13
-3 -30 -37 -110 4 -110 57 0 67 83 103 116 51z m134 16 c8 -5 12 -12 8 -15 -3
-4 -15 -1 -26 6 -11 7 -27 9 -36 6 -29 -11 -17 -37 24 -53 31 -13 40 -21 40
-40 0 -16 -8 -28 -24 -35 -30 -14 -76 -4 -76 17 0 14 2 14 22 0 28 -20 33 -20
52 0 20 20 13 32 -31 50 -39 17 -51 38 -33 59 14 17 57 20 80 5z m138 -10 c4
-13 3 -13 -11 -2 -20 17 -62 12 -62 -7 0 -8 18 -24 40 -35 49 -26 55 -49 20
-72 -29 -19 -74 -11 -83 14 -2 8 6 6 26 -5 25 -14 32 -15 46 -4 26 22 18 40
-24 57 -30 12 -40 22 -40 38 0 13 3 26 7 30 13 12 76 2 81 -14z m144 8 c42
-35 22 -59 -47 -57 -19 1 -23 3 -10 6 11 2 30 6 43 9 28 6 28 20 1 35 -16 8
-28 8 -45 0 -32 -14 -34 -79 -3 -106 17 -16 25 -17 52 -7 29 10 30 10 13 -3
-46 -35 -106 0 -106 60 0 60 60 96 102 63z m88 -46 c0 -32 5 -63 12 -70 9 -9
5 -12 -17 -11 -17 0 -24 3 -17 6 15 6 17 113 1 113 -5 0 -7 5 -4 10 15 24 25
6 25 -48z m64 49 c3 -5 -5 -11 -19 -13 -20 -4 -23 -3 -14 8 13 16 25 18 33 5z
m-2054 -101 c0 -5 14 -10 31 -10 34 0 69 -15 69 -30 0 -6 -9 -19 -20 -30 -34
-34 -121 -22 -107 14 8 21 25 20 23 -1 -1 -22 48 -30 70 -12 25 21 16 39 -20
39 -19 0 -41 3 -50 6 -17 7 -22 34 -6 34 6 0 10 -4 10 -10z"/>
<path d="M2847 1263 c-4 -3 -7 -49 -7 -101 l0 -95 42 6 c55 7 88 43 88 95 0
49 -22 79 -68 92 -44 12 -47 12 -55 3z"/>
<path d="M1651 1172 c-13 -25 8 -56 35 -50 29 5 27 62 -3 66 -13 2 -26 -4 -32
-16z"/>
</g>
</svg>
